<?xml version="1.0" encoding="UTF-8"?><svg id="Calque_1" xmlns="http://www.w3.org/2000/svg" viewBox="0 0 355.55 141.55"><defs><style>.cls-1{fill:#a8a8a8;}</style></defs><path class="cls-1" d="m14.39,116.42l-2.63,2.33-1.4-1.96c-.16-.22-.43-.51-.79-.86-.16-.14-.5-.22-1.01-.25-.58-.04-1.15.1-1.7.43-.62.35-1.32,1.03-2.11,2.06-.71.94-1.15,1.93-1.32,2.98-.15,1.02-.04,1.97.33,2.85.38.94.89,1.68,1.51,2.21.66.55,1.15.88,1.48.98.42.1.86.14,1.32.12.57-.02,1-.05,1.32-.09l2.19-.21.3,3.74-1.67.18-.49.06c-.37.02-.88.05-1.53.09-.75.02-1.48-.06-2.19-.25-.79-.2-1.7-.75-2.74-1.63-1.08-.92-1.93-2.14-2.55-3.65-.64-1.55-.83-3.23-.58-5.03.26-1.76.95-3.36,2.08-4.82,1.06-1.39,2.09-2.38,3.1-2.98,1.1-.61,2.23-.89,3.4-.83,1.28.06,2.29.44,3.04,1.13.55.51.97.98,1.26,1.41l1.4,1.96Z"/><path class="cls-1" d="m19.98,130.56l-3.34.31-.25-3.44c-.07-1.1-.11-2.83-.11-5.18-.02-2.27-.05-4.08-.08-5.43-.05-1.31-.1-2.08-.14-2.3l-.3-2.33,3.34-.55.25,1.87.05.46c.06.37.11,1.27.16,2.7.04,1.39.06,3.25.08,5.58,0,2.27.04,3.9.11,4.88l.22,3.44Z"/><path class="cls-1" d="m24.96,124.92c.02.06.04.12.06.18.24.8.44,1.32.6,1.56.2.18.57.37,1.1.57s.99.26,1.37.2l.93-.12,1.67-.28.47,3.74-1.67.25-.93.15c-.9.14-1.86.02-2.91-.37-1-.37-1.77-.83-2.3-1.38-.37-.37-.65-.79-.86-1.27s-.43-1.1-.67-1.86c-.42-1.49-.56-2.82-.41-3.99.18-1.33.88-2.59,2.08-3.77,1.11-1.08,2.1-1.76,2.96-2.02.84-.25,1.72-.28,2.63-.09.93.21,1.74.61,2.44,1.23.84.72,1.36,1.64,1.56,2.76.09.31.14.71.14,1.21s-.12.98-.36,1.43c-.35.7-.88,1.15-1.59,1.35-.35.1-.9.2-1.67.31-.75.08-1.67.13-2.77.15l-1.86.06Zm1.04-3.8l.74-.03c1.02-.02,1.85-.07,2.49-.15.15-.02.29-.04.44-.06-.04-.08-.11-.16-.22-.25-.27-.25-.61-.41-1.01-.49-.4-.08-.79-.07-1.15.03-.29.1-.72.42-1.29.95Z"/><path class="cls-1" d="m37.76,121.54l-3.18-1.26.66-2.09c.09-.29.21-.55.36-.78.15-.23.27-.4.37-.49.1-.09.27-.22.52-.4.25-.17.41-.29.48-.35,1.02-.82,2.27-1.17,3.75-1.04,1.33.12,2.44.48,3.32,1.07.93.63,1.63,1.54,2.11,2.73.42,1.06.66,2.22.71,3.47.04,1.02.06,1.92.06,2.7v5.83h-3.37v-.25c-.51.06-1.1.15-1.75.28-.9.16-1.73.17-2.49.03-1.04-.2-1.83-.72-2.36-1.53-.57-.86-.73-1.84-.49-2.95.18-.88.59-1.69,1.23-2.42.58-.67,1.36-1.23,2.33-1.66.9-.39,1.69-.6,2.38-.64l1.01-.06c-.05-.45-.16-.87-.33-1.26-.18-.47-.45-.82-.79-1.04-.4-.29-1-.46-1.81-.52-.68-.06-1.2.05-1.56.34-.26.21-.46.38-.6.52l-.55,1.78Zm5.78,3.96l-.96.06c-.35.02-.8.15-1.37.4-.49.23-.87.48-1.12.77-.16.18-.27.36-.33.52.04,0,.07.01.11.03.38.06.84.05,1.37-.03.73-.14,1.39-.25,1.97-.34l.33-.03v-1.38Z"/><path class="cls-1" d="m49.13,127.34v-.28c-.05-.67-.15-1.76-.27-3.25-.06-.55-.11-1.06-.16-1.53-.07-.82-.13-1.5-.16-2.05l-.11-1.32-.16-1.9,3.34-.34.05.58c.13-.12.25-.24.36-.34,1.11-1,2.19-1.29,3.23-.86.26.1.49.25.71.43.53.43.93.98,1.21,1.64.27.67.54,1.54.79,2.62.42,1.78.7,3.25.85,4.42.16,1.08.26,1.79.3,2.12l.08.52.3,1.84-3.32.67-.3-1.87-.08-.49c-.05-.37-.16-1.1-.3-2.21-.15-1.04-.41-2.4-.79-4.08-.18-.78-.37-1.39-.58-1.84-.48.43-.84,1.21-1.1,2.33-.07.25-.13.5-.16.77-.22,1.15-.34,2.32-.36,3.53v.74c.04.59.05,1.05.03,1.38l.22.18c.24.37-.14.84-1.12,1.41-.37.22-.69.34-.99.35-.29.01-.53-.05-.7-.18-.17-.13-.32-.33-.44-.6-.12-.27-.2-.52-.25-.77-.05-.25-.08-.51-.1-.8-.02-.29-.03-.48-.03-.58v-.25Z"/><path class="cls-1" d="m62.75,126.24l3.37-.37.19,2.42c.04.43.05.88.03,1.35-.02.61-.16,1.27-.41,1.96-.2.59-.48,1.07-.85,1.44-.2.23-.43.41-.69.55l-1.97,1.17-1.59-3.31,1.48-.89.47-.28s.04-.06.05-.12c.09-.27.14-.48.14-.64.02-.31.02-.6,0-.89l-.06-.52-.16-1.87Z"/><path class="cls-1" d="m94.43,116.42l-2.63,2.33-1.4-1.96c-.16-.22-.43-.51-.79-.86-.16-.14-.5-.22-1.01-.25-.58-.04-1.15.1-1.7.43-.62.35-1.32,1.03-2.11,2.06-.71.94-1.15,1.93-1.32,2.98-.15,1.02-.04,1.97.33,2.85.38.94.89,1.68,1.51,2.21.66.55,1.15.88,1.48.98.42.1.86.14,1.32.12.57-.02,1-.05,1.32-.09l2.19-.21.3,3.74-1.67.18-.49.06c-.37.02-.88.05-1.53.09-.75.02-1.48-.06-2.19-.25-.79-.2-1.7-.75-2.74-1.63-1.08-.92-1.93-2.14-2.55-3.65-.64-1.55-.83-3.23-.58-5.03.26-1.76.95-3.36,2.08-4.82,1.06-1.39,2.09-2.38,3.1-2.98,1.1-.61,2.23-.89,3.4-.83,1.28.06,2.29.44,3.04,1.13.55.51.97.98,1.26,1.41l1.4,1.96Z"/><path class="cls-1" d="m98.87,117.65c.64-.65,1.29-1.06,1.95-1.23.58-.12,1.13-.21,1.64-.28l2.38-.21.25,3.77-1.67.15-.69.06c-.38.04-.79.11-1.23.21-.18.08-.44.34-.77.77-.29.37-.55.8-.77,1.29-.11.29-.21.58-.3.89s-.16.61-.22.92c.04.59.08,1.09.14,1.5.11.9.22,1.75.33,2.55.04.02.07.06.11.12s.08.18.14.37c.05.18.07.37.05.57-.02.19-.11.42-.27.69-.16.27-.4.51-.71.74-.46.35-.86.54-1.21.58-.35.04-.61-.03-.79-.21-.18-.18-.34-.39-.47-.63-.13-.23-.2-.45-.22-.66l-.05-.28c-.38-.92-.58-2.09-.58-3.5-.02-.67.03-1.36.14-2.05-.04-.53-.06-1.1-.08-1.72l-.08-2.39-.08-1.9,3.07-.12Z"/><path class="cls-1" d="m110.08,124.92c.02.06.04.12.06.18.24.8.44,1.32.6,1.56.2.18.57.37,1.1.57s.99.26,1.37.2l.93-.12,1.67-.28.47,3.74-1.67.25-.93.15c-.9.14-1.86.02-2.91-.37-1-.37-1.77-.83-2.3-1.38-.37-.37-.65-.79-.86-1.27s-.43-1.1-.67-1.86c-.42-1.49-.56-2.82-.41-3.99.18-1.33.88-2.59,2.08-3.77,1.11-1.08,2.1-1.76,2.96-2.02.84-.25,1.72-.28,2.63-.09.93.21,1.74.61,2.44,1.23.84.72,1.36,1.64,1.56,2.76.09.31.14.71.14,1.21s-.12.98-.36,1.43c-.35.7-.88,1.15-1.59,1.35-.35.1-.9.2-1.67.31-.75.08-1.67.13-2.77.15l-1.86.06Zm1.04-3.8l.74-.03c1.02-.02,1.85-.07,2.49-.15.15-.02.29-.04.44-.06-.04-.08-.11-.16-.22-.25-.27-.25-.61-.41-1.01-.49-.4-.08-.79-.07-1.15.03-.29.1-.72.42-1.29.95Z"/><path class="cls-1" d="m122.88,121.54l-3.18-1.26.66-2.09c.09-.29.21-.55.36-.78.15-.23.27-.4.37-.49.1-.09.27-.22.52-.4.25-.17.41-.29.48-.35,1.02-.82,2.28-1.17,3.75-1.04,1.33.12,2.44.48,3.32,1.07.93.63,1.63,1.54,2.11,2.73.42,1.06.66,2.22.71,3.47.04,1.02.05,1.92.05,2.7v5.83h-3.37v-.25c-.51.06-1.1.15-1.75.28-.89.16-1.73.17-2.49.03-1.04-.2-1.83-.72-2.36-1.53-.57-.86-.73-1.84-.49-2.95.18-.88.59-1.69,1.23-2.42.58-.67,1.36-1.23,2.33-1.66.9-.39,1.69-.6,2.38-.64l1.01-.06c-.05-.45-.16-.87-.33-1.26-.18-.47-.45-.82-.79-1.04-.4-.29-1.01-.46-1.81-.52-.68-.06-1.2.05-1.56.34-.26.21-.46.38-.6.52l-.55,1.78Zm5.78,3.96l-.96.06c-.35.02-.8.15-1.37.4-.49.23-.87.48-1.12.77-.16.18-.27.36-.33.52.04,0,.07.01.11.03.38.06.84.05,1.37-.03.73-.14,1.39-.25,1.97-.34l.33-.03v-1.38Z"/><path class="cls-1" d="m134.25,122.62l-.88-3.65,1.62-.49.68-.21c.42-.12.99-.23,1.7-.34-.02-.2-.04-.37-.05-.49l-.19-2.42,3.37-.31.19,2.42c0,.08,0,.19.03.34.15-.02.28-.04.41-.06l1.29-.12,1.67-.15.33,3.74-1.7.18-1.26.12c-.13.02-.26.03-.41.03.07.8.14,1.64.19,2.52.09,1.39.17,2.35.25,2.88l.41,2.76-3.32.61-.27-1.84-.14-.92c-.09-.65-.19-1.74-.3-3.25-.04-.8-.09-1.56-.16-2.3-.53.1-.91.18-1.15.25l-.68.21-1.62.49Z"/><path class="cls-1" d="m149.38,124.92c.02.06.04.12.05.18.24.8.44,1.32.6,1.56.2.18.57.37,1.1.57s.99.26,1.37.2l.93-.12,1.67-.28.47,3.74-1.67.25-.93.15c-.9.14-1.86.02-2.9-.37-1-.37-1.77-.83-2.3-1.38-.37-.37-.65-.79-.86-1.27-.21-.48-.43-1.1-.67-1.86-.42-1.49-.56-2.82-.41-3.99.18-1.33.88-2.59,2.08-3.77,1.11-1.08,2.1-1.76,2.96-2.02.84-.25,1.72-.28,2.63-.09.93.21,1.75.61,2.44,1.23.84.72,1.36,1.64,1.56,2.76.09.31.14.71.14,1.21s-.12.98-.36,1.43c-.35.7-.88,1.15-1.59,1.35-.35.1-.9.2-1.67.31-.75.08-1.67.13-2.77.15l-1.86.06Zm1.04-3.8l.74-.03c1.02-.02,1.85-.07,2.49-.15.15-.02.29-.04.44-.06-.04-.08-.11-.16-.22-.25-.27-.25-.61-.41-1.01-.49-.4-.08-.79-.07-1.15.03-.29.1-.72.42-1.29.95Z"/><path class="cls-1" d="m160.91,126.24l3.37-.37.19,2.42c.04.43.05.88.03,1.35-.02.61-.16,1.27-.41,1.96-.2.59-.48,1.07-.85,1.44-.2.23-.43.41-.69.55l-1.97,1.17-1.59-3.31,1.48-.89.47-.28s.04-.06.06-.12c.09-.27.14-.48.14-.64.02-.31.02-.6,0-.89l-.05-.52-.17-1.87Z"/><path class="cls-1" d="m181.66,124.4c-.04.61-.05,1.15-.05,1.59-.04,1.15-.04,2.06,0,2.73l.19,3.01-3.37.25-.16-2.98c-.05-.82-.06-1.86-.03-3.13.02-.88.07-2.08.16-3.59.04-.59.07-1.22.11-1.87.16-2.33.24-3.88.22-4.63l-.08-1.26c-.15-.86-.03-1.58.36-2.18.18-.26.38-.47.59-.63.21-.15.38-.25.51-.29s.32-.08.56-.12c.25-.04.4-.06.45-.06.88-.2,1.9-.15,3.07.15s2.18.82,3.04,1.53c1.08.94,1.63,2.07,1.64,3.38.04,1.19-.39,2.38-1.29,3.59-.2.27-.41.53-.63.8,1.3.76,2.05,1.81,2.27,3.16.16.92.22,1.88.16,2.88-.04.8-.06,1.27-.08,1.41v2.09h-3.37v-2.09c0-.18.03-.73.08-1.63.04-.69,0-1.36-.11-1.99-.02-.14-.21-.32-.58-.52-.51-.31-.98-.42-1.4-.34-.38.06-.69.13-.93.21-.04.02-.06.04-.08.06-.07.04-.13.09-.17.14-.04.05-.07.09-.1.11s-.12.05-.29.09c-.16.04-.4.08-.71.12Zm.25-4.17c.35-.23.75-.52,1.21-.89.71-.51,1.33-1.12,1.86-1.84.37-.49.55-.86.55-1.1.02-.08-.1-.23-.36-.46-.48-.39-1.06-.67-1.75-.86-.53-.14-.99-.2-1.37-.18.02.22.04.48.05.77.02.84-.05,2.36-.19,4.57Z"/><path class="cls-1" d="m194.37,124.92c.02.06.04.12.05.18.24.8.44,1.32.6,1.56.2.18.57.37,1.1.57s.99.26,1.37.2l.93-.12,1.67-.28.47,3.74-1.67.25-.93.15c-.9.14-1.86.02-2.9-.37-1-.37-1.77-.83-2.3-1.38-.37-.37-.65-.79-.86-1.27-.21-.48-.43-1.1-.67-1.86-.42-1.49-.56-2.82-.41-3.99.18-1.33.88-2.59,2.08-3.77,1.11-1.08,2.1-1.76,2.96-2.02.84-.25,1.72-.28,2.63-.09.93.21,1.75.61,2.44,1.23.84.72,1.36,1.64,1.56,2.76.09.31.14.71.14,1.21s-.12.98-.36,1.43c-.35.7-.88,1.15-1.59,1.35-.35.1-.9.2-1.67.31-.75.08-1.67.13-2.77.15l-1.86.06Zm1.04-3.8l.74-.03c1.02-.02,1.85-.07,2.49-.15.15-.02.29-.04.44-.06-.04-.08-.11-.16-.22-.25-.27-.25-.61-.41-1.01-.49-.4-.08-.79-.07-1.15.03-.29.1-.72.42-1.29.95Z"/><path class="cls-1" d="m215.28,122.13l-2.99,1.75-.79-1.69-.27-.58c-.15-.31-.36-.65-.63-1.04-.11-.14-.2-.23-.27-.28-.22.02-.52.12-.9.31-.6.29-1.12.76-1.56,1.41-.37.55-.53,1.16-.49,1.81.05.8.25,1.46.6,1.99.27.43.68.72,1.21.86.71.21,1.32.27,1.81.18.55-.08.89-.14,1.04-.18l1.92-.77,1.12,3.56-1.92.77c-.33.12-.9.25-1.7.37-.91.14-1.94.06-3.07-.25-1.35-.37-2.41-1.16-3.18-2.36-.69-1.1-1.09-2.4-1.18-3.9-.11-1.62.27-3.07,1.15-4.36.8-1.19,1.76-2.06,2.88-2.61,1.22-.59,2.25-.77,3.07-.52s1.53.78,2.11,1.59c.42.57.75,1.12.99,1.63l1.07,2.3Z"/><path class="cls-1" d="m216.63,119.15l3.26-.95.41,1.84.25,1.01c.15.61.4,1.47.77,2.58.13.35.25.62.38.83.13-.1.26-.24.38-.4.68-.8,1.12-1.48,1.34-2.05.18-.55.3-.93.36-1.14l-.22-.18c-.18-.33.16-.78,1.04-1.35.35-.23.66-.36.93-.4.27-.04.5,0,.67.11.17.11.32.28.45.49.13.21.22.43.27.64.05.21.1.44.14.67.04.24.06.4.07.51,0,.1.01.17.01.21-.02.61-.14,2.26-.36,4.94-.24,2.72-.55,5.05-.93,7-.42,2.11-.95,3.65-1.59,4.63-.58.94-1.11,1.58-1.56,1.93l-1.81,1.47-1.95-3.07,1.34-1.1.44-.37c.18-.14.45-.5.79-1.07.37-.55.71-1.64,1.04-3.25.27-1.39.51-3.01.71-4.85-.91.61-1.8.74-2.66.37-1.04-.45-1.85-1.51-2.44-3.19-.44-1.25-.74-2.25-.91-3.01l-.66-2.85Z"/><path class="cls-1" d="m239.78,122.13l-2.99,1.75-.79-1.69-.27-.58c-.15-.31-.36-.65-.63-1.04-.11-.14-.2-.23-.27-.28-.22.02-.52.12-.9.31-.6.29-1.12.76-1.56,1.41-.37.55-.53,1.16-.49,1.81.05.8.25,1.46.6,1.99.27.43.68.72,1.21.86.71.21,1.32.27,1.81.18.55-.08.89-.14,1.04-.18l1.92-.77,1.12,3.56-1.92.77c-.33.12-.9.25-1.7.37-.91.14-1.94.06-3.07-.25-1.35-.37-2.41-1.16-3.18-2.36-.69-1.1-1.09-2.4-1.18-3.9-.11-1.62.27-3.07,1.15-4.36.8-1.19,1.76-2.06,2.88-2.61,1.22-.59,2.25-.77,3.07-.52s1.53.78,2.11,1.59c.42.57.75,1.12.99,1.63l1.07,2.3Z"/><path class="cls-1" d="m245.35,130.56l-3.34.31-.25-3.44c-.07-1.1-.11-2.83-.11-5.18-.02-2.27-.05-4.08-.08-5.43-.05-1.31-.1-2.08-.14-2.3l-.3-2.33,3.34-.55.25,1.87.05.46c.05.37.11,1.27.17,2.7.04,1.39.06,3.25.08,5.58,0,2.27.04,3.9.11,4.88l.22,3.44Z"/><path class="cls-1" d="m250.33,124.92c.02.06.04.12.05.18.24.8.44,1.32.6,1.56.2.18.57.37,1.1.57s.99.26,1.37.2l.93-.12,1.67-.28.47,3.74-1.67.25-.93.15c-.9.14-1.86.02-2.9-.37-1-.37-1.77-.83-2.3-1.38-.37-.37-.65-.79-.86-1.27-.21-.48-.43-1.1-.67-1.86-.42-1.49-.56-2.82-.41-3.99.18-1.33.88-2.59,2.08-3.77,1.11-1.08,2.1-1.76,2.96-2.02.84-.25,1.72-.28,2.63-.09.93.21,1.75.61,2.44,1.23.84.72,1.36,1.64,1.56,2.76.09.31.14.71.14,1.21s-.12.98-.36,1.43c-.35.7-.88,1.15-1.59,1.35-.35.1-.9.2-1.67.31-.75.08-1.67.13-2.77.15l-1.86.06Zm1.04-3.8l.74-.03c1.02-.02,1.85-.07,2.49-.15.15-.02.29-.04.44-.06-.04-.08-.11-.16-.22-.25-.27-.25-.61-.41-1.01-.49-.4-.08-.79-.07-1.15.03-.29.1-.72.42-1.29.95Z"/><path class="cls-1" d="m261.87,126.24l3.37-.37.19,2.42c.04.43.05.88.03,1.35-.02.61-.16,1.27-.41,1.96-.2.59-.48,1.07-.85,1.44-.2.23-.43.41-.69.55l-1.97,1.17-1.59-3.31,1.48-.89.47-.28s.04-.06.06-.12c.09-.27.14-.48.14-.64.02-.31.02-.6,0-.89l-.05-.52-.17-1.87Z"/><path class="cls-1" d="m282.62,124.4c-.04.61-.05,1.15-.05,1.59-.04,1.15-.04,2.06,0,2.73l.19,3.01-3.37.25-.16-2.98c-.05-.82-.06-1.86-.03-3.13.02-.88.07-2.08.16-3.59.04-.59.07-1.22.11-1.87.16-2.33.24-3.88.22-4.63l-.08-1.26c-.15-.86-.03-1.58.36-2.18.18-.26.38-.47.59-.63.21-.15.38-.25.51-.29s.32-.08.56-.12c.25-.04.4-.06.45-.06.88-.2,1.9-.15,3.07.15s2.18.82,3.04,1.53c1.08.94,1.63,2.07,1.64,3.38.04,1.19-.39,2.38-1.29,3.59-.2.27-.41.53-.63.8,1.3.76,2.05,1.81,2.27,3.16.16.92.22,1.88.16,2.88-.04.8-.06,1.27-.08,1.41v2.09h-3.37v-2.09c0-.18.03-.73.08-1.63.04-.69,0-1.36-.11-1.99-.02-.14-.21-.32-.58-.52-.51-.31-.98-.42-1.4-.34-.38.06-.69.13-.93.21-.04.02-.06.04-.08.06-.07.04-.13.09-.17.14-.04.05-.07.09-.1.11s-.12.05-.29.09c-.16.04-.4.08-.71.12Zm.25-4.17c.35-.23.75-.52,1.21-.89.71-.51,1.33-1.12,1.86-1.84.37-.49.55-.86.55-1.1.02-.08-.1-.23-.36-.46-.48-.39-1.06-.67-1.75-.86-.53-.14-.99-.2-1.37-.18.02.22.04.48.05.77.02.84-.05,2.36-.19,4.57Z"/><path class="cls-1" d="m295.33,124.92c.02.06.04.12.05.18.24.8.44,1.32.6,1.56.2.18.57.37,1.1.57s.99.26,1.37.2l.93-.12,1.67-.28.47,3.74-1.67.25-.93.15c-.9.14-1.86.02-2.9-.37-1-.37-1.77-.83-2.3-1.38-.37-.37-.65-.79-.86-1.27-.21-.48-.43-1.1-.67-1.86-.42-1.49-.56-2.82-.41-3.99.18-1.33.88-2.59,2.08-3.77,1.11-1.08,2.1-1.76,2.96-2.02.84-.25,1.72-.28,2.63-.09.93.21,1.75.61,2.44,1.23.84.72,1.36,1.64,1.56,2.76.09.31.14.71.14,1.21s-.12.98-.36,1.43c-.35.7-.88,1.15-1.59,1.35-.35.1-.9.2-1.67.31-.75.08-1.67.13-2.77.15l-1.86.06Zm1.04-3.8l.74-.03c1.02-.02,1.85-.07,2.49-.15.15-.02.29-.04.44-.06-.04-.08-.11-.16-.22-.25-.27-.25-.61-.41-1.01-.49-.4-.08-.79-.07-1.15.03-.29.1-.72.42-1.29.95Z"/><path class="cls-1" d="m308.79,130.17c.02.86.04,1.81.05,2.85.02,1.37-.02,2.41-.11,3.13l-.11.95-.19,1.87-3.34-.46.19-1.87.11-.95c.07-.55.1-1.43.08-2.64-.02-1.29-.05-2.44-.08-3.47,0-.33,0-.7-.03-1.1-.05-.84-.12-1.84-.19-3.01-.11-1.8-.18-3.05-.22-3.74-.04-1.17.22-2.13.77-2.88.55-.76,1.4-1.22,2.55-1.38.86-.14,1.69-.14,2.49,0,.8.14,1.6.45,2.38.92.82.47,1.39,1.12,1.7,1.96.13.39.2.79.22,1.2.04,1.1-.37,2.36-1.21,3.77-.75,1.23-1.58,2.23-2.49,3.01-.84.74-1.53,1.26-2.08,1.56l-.49.28Zm-.19-4.2c.22-.18.47-.39.74-.61.6-.53,1.17-1.25,1.7-2.15.38-.61.59-1.09.63-1.44-.02,0-.04,0-.05-.03-.48-.27-.94-.44-1.4-.52-.48-.08-.98-.08-1.51,0-.15.02-.27.04-.38.06v.28c.04.68.11,1.89.22,3.65.02.25.04.5.05.77Z"/><path class="cls-1" d="m320.02,124.92c.02.06.04.12.05.18.24.8.44,1.32.6,1.56.2.18.57.37,1.1.57s.99.26,1.37.2l.93-.12,1.67-.28.47,3.74-1.67.25-.93.15c-.9.14-1.86.02-2.9-.37-1-.37-1.77-.83-2.3-1.38-.37-.37-.65-.79-.86-1.27-.21-.48-.43-1.1-.67-1.86-.42-1.49-.56-2.82-.41-3.99.18-1.33.88-2.59,2.08-3.77,1.11-1.08,2.1-1.76,2.96-2.02.84-.25,1.72-.28,2.63-.09.93.21,1.75.61,2.44,1.23.84.72,1.36,1.64,1.56,2.76.09.31.14.71.14,1.21s-.12.98-.36,1.43c-.35.7-.88,1.15-1.59,1.35-.35.1-.9.2-1.67.31-.75.08-1.67.13-2.77.15l-1.86.06Zm1.04-3.8l.74-.03c1.02-.02,1.85-.07,2.49-.15.15-.02.29-.04.44-.06-.04-.08-.11-.16-.22-.25-.27-.25-.61-.41-1.01-.49-.4-.08-.79-.07-1.15.03-.29.1-.72.42-1.29.95Z"/><path class="cls-1" d="m332.82,121.54l-3.18-1.26.66-2.09c.09-.29.21-.55.36-.78.15-.23.27-.4.37-.49s.27-.22.52-.4c.25-.17.41-.29.48-.35,1.02-.82,2.28-1.17,3.75-1.04,1.33.12,2.44.48,3.32,1.07.93.63,1.63,1.54,2.11,2.73.42,1.06.66,2.22.71,3.47.04,1.02.05,1.92.05,2.7v5.83h-3.37v-.25c-.51.06-1.1.15-1.75.28-.9.16-1.73.17-2.49.03-1.04-.2-1.83-.72-2.36-1.53-.57-.86-.73-1.84-.49-2.95.18-.88.59-1.69,1.23-2.42.58-.67,1.36-1.23,2.33-1.66.9-.39,1.69-.6,2.38-.64l1.01-.06c-.05-.45-.16-.87-.33-1.26-.18-.47-.45-.82-.79-1.04-.4-.29-1-.46-1.81-.52-.68-.06-1.2.05-1.56.34-.26.21-.46.38-.6.52l-.55,1.78Zm5.78,3.96l-.96.06c-.35.02-.8.15-1.37.4-.49.23-.87.48-1.12.77-.16.18-.27.36-.33.52.04,0,.07.01.11.03.38.06.84.05,1.37-.03.73-.14,1.39-.25,1.97-.34l.33-.03v-1.38Z"/><path class="cls-1" d="m344.19,122.62l-.88-3.65,1.62-.49.68-.21c.42-.12.99-.23,1.7-.34-.02-.2-.04-.37-.05-.49l-.19-2.42,3.37-.31.19,2.42c0,.08,0,.19.03.34.15-.02.28-.04.41-.06l1.29-.12,1.67-.15.33,3.74-1.7.18-1.26.12c-.13.02-.26.03-.41.03.07.8.14,1.64.19,2.52.09,1.39.17,2.35.25,2.88l.41,2.76-3.32.61-.27-1.84-.14-.92c-.09-.65-.19-1.74-.3-3.25-.04-.8-.09-1.56-.16-2.3-.53.1-.91.18-1.15.25l-.68.21-1.62.49Z"/><path class="cls-1" d="m40.28,101.32l-30.21-29.26v29.26H1.35v-56.38h8.72v23.52l25.53-23.52h12.24l-28.2,25.33,32.73,31.04h-12.1Z"/><path class="cls-1" d="m97.1,101.32l-26.96-24.88v24.88h-8.72v-56.38h26.45c12.31,0,20.55,6.02,20.55,16.98s-7.54,16.7-19.9,16.7h-4.7l25.75,22.7h-12.48Zm-26.96-30.26h18.4c6.5,0,10.97-2.89,10.97-9.14s-4.47-9.13-10.97-9.13h-18.4v18.27Z"/><path class="cls-1" d="m140.55,77.04l-24.6-32.1h10.42l18.55,23.97,18.52-23.97h10.42l-24.6,32.1v24.23h-8.71v-24.23Z"/><path class="cls-1" d="m204.78,102c-9.16.03-18.66-2.55-25.23-6.7l4.7-6.78c6.02,3.61,13.72,5.65,20.9,5.59,7.87-.07,13.2-3.06,13.31-8.2.11-4.73-3.06-6.48-11.33-8.39l-7.44-1.7c-12.07-2.74-17.65-7.77-17.69-16.07-.05-9.15,9.17-15.4,21.6-15.47,8.2-.05,16.16,2.43,21.99,6.03l-4.42,6.77c-4.97-3.04-10.68-4.97-16.77-4.92-7.76.07-13.15,2.83-13.1,7.84.04,4.36,3.53,6.51,10.94,8.2l7.95,1.79c11.99,2.7,17.24,7.29,17.29,15.88.05,9.57-9.21,16.07-22.69,16.11h0Z"/><path class="cls-1" d="m255.65,52.9h-19.7l-.05-7.95h48.03v7.95h-19.66v48.42h-8.62v-48.42Z"/><path d="m133.8,23.31h0c-.53-.06-3.22-.47-6.74-3.6-6.29-5.59-17.31-7.42-26.19-.06-3.27,2.71-6.74,4.1-9.95,4.17-3.23-.07-6.54-1.47-9.82-4.17-4.03-3.34-8.49-4.78-12.74-4.84-4.26.06-8.71,1.5-12.74,4.84-3.28,2.71-6.59,4.1-9.82,4.17-3.21-.07-6.67-1.47-9.95-4.17-8.88-7.35-19.9-5.53-26.19.06-3.52,3.13-6.21,3.55-6.73,3.6h0C1.31,23.31,0,24.61,0,26.23s1.31,2.92,2.91,2.92c.02,0,.04,0,.05,0,.65,0,5.15-.26,10.56-5.08,3.09-2.75,10.95-6.27,18.61.07,4.37,3.61,9.15,5.44,13.66,5.53,4.53-.08,9.17-1.92,13.53-5.53,3.1-2.57,6.22-3.52,9.03-3.56,2.81.04,5.92.99,9.03,3.56,4.37,3.61,9,5.44,13.53,5.53,4.51-.08,9.31-1.92,13.66-5.53,7.66-6.34,15.52-2.82,18.61-.07,5.41,4.82,9.92,5.07,10.56,5.08.02,0,.03,0,.05,0,1.6,0,2.91-1.31,2.91-2.92s-1.31-2.91-2.91-2.91Z"/><path d="m133.8,8.52h0c-.53-.06-3.22-.47-6.74-3.6-6.29-5.59-17.31-7.42-26.19-.06-3.27,2.71-6.74,4.1-9.95,4.17-3.23-.07-6.54-1.47-9.82-4.17C77.07,1.51,72.61.07,68.35.01c-4.26.06-8.71,1.5-12.74,4.84-3.28,2.71-6.59,4.1-9.82,4.17-3.21-.07-6.67-1.47-9.95-4.17-8.88-7.35-19.9-5.53-26.19.06-3.52,3.13-6.21,3.55-6.73,3.6h0C1.31,8.52,0,9.81,0,11.43s1.31,2.92,2.91,2.92c.02,0,.04,0,.05,0,.65,0,5.15-.26,10.56-5.08,3.09-2.75,10.95-6.27,18.61.07,4.37,3.61,9.15,5.44,13.66,5.53,4.53-.08,9.17-1.92,13.53-5.53,3.1-2.57,6.22-3.52,9.03-3.56,2.81.04,5.92.99,9.03,3.56,4.37,3.61,9,5.44,13.53,5.53,4.51-.08,9.31-1.92,13.66-5.53,7.66-6.34,15.52-2.82,18.61-.07,5.41,4.82,9.92,5.07,10.56,5.08.02,0,.03,0,.05,0,1.6,0,2.91-1.31,2.91-2.92s-1.31-2.91-2.91-2.91Z"/><path d="m319.58,96.16c-13.45-1.68-23.12-12.56-23.12-25.85s9.67-24.29,23.12-25.97v-5.15c-16.66,1.71-28.52,16.44-28.52,32.6s11.86,27.83,28.52,29.54v-5.16Z"/><path d="m325.91,39.1v5.12c14.07,1.26,24.21,12.35,24.21,26.08s-10.14,24.71-24.21,25.96v5.14c17.29-1.27,29.64-14.74,29.64-31.11s-12.35-29.94-29.64-31.2Z"/></svg>